<?xml version="1.0" standalone="no"?>
<!DOCTYPE svg PUBLIC "-//W3C//DTD SVG 20010904//EN"
 "http://www.w3.org/TR/2001/REC-SVG-20010904/DTD/svg10.dtd">
<svg version="1.0" xmlns="http://www.w3.org/2000/svg"
 width="155.000000pt" height="49.000000pt" viewBox="0 0 155.000000 49.000000"
 preserveAspectRatio="xMidYMid meet">
<metadata>
Created by potrace 1.12, written by Peter Selinger 2001-2015
</metadata>
<g transform="translate(0.000000,49.000000) scale(0.100000,-0.100000)"
fill="#000000" stroke="none">
<path d="M802 320 c0 -19 2 -27 5 -17 2 9 2 25 0 35 -3 9 -5 1 -5 -18z"/>
<path d="M1283 295 c0 -33 2 -45 4 -27 2 18 2 45 0 60 -2 15 -4 0 -4 -33z"/>
<path d="M253 312 c-3 -14 -12 -17 -44 -14 -35 4 -39 2 -39 -19 1 -21 2 -22
11 -6 8 14 18 16 50 11 37 -6 39 -5 39 20 0 30 -10 35 -17 8z"/>
<path d="M486 255 c11 -48 25 -76 18 -35 -4 19 -10 42 -15 50 -6 10 -7 5 -3
-15z"/>
<path d="M560 206 c-21 -70 -25 -75 -54 -79 -24 -4 -23 -4 8 -3 l38 1 24 75
c28 88 26 80 15 80 -5 0 -19 -34 -31 -74z"/>
<path d="M1337 244 c-13 -26 -15 -40 -7 -55 14 -24 20 -25 13 0 -3 10 2 32 11
49 18 35 19 42 8 42 -5 0 -16 -16 -25 -36z"/>
<path d="M737 238 l6 -38 -47 0 c-25 0 -46 -3 -46 -7 0 -5 22 -6 50 -5 47 4
50 6 50 30 0 15 -5 34 -10 42 -6 10 -8 3 -3 -22z"/>
<path d="M892 219 c-2 -69 -19 -86 -87 -92 -49 -3 -49 -3 11 -5 78 -2 86 7 81
90 l-3 63 -2 -56z"/>
<path d="M1049 218 c4 -67 -17 -91 -75 -86 -23 2 -40 0 -37 -4 7 -13 98 -9
111 4 13 13 17 124 5 131 -5 3 -6 -17 -4 -45z"/>
<path d="M1209 218 c4 -67 -17 -91 -75 -86 -23 2 -40 0 -37 -4 7 -13 98 -9
111 4 13 13 17 124 5 131 -5 3 -6 -17 -4 -45z"/>
<path d="M410 196 l0 -64 -51 0 c-28 -1 -54 -3 -57 -6 -3 -3 22 -6 56 -6 l62
0 0 70 c0 39 -2 70 -5 70 -3 0 -5 -29 -5 -64z"/>
<path d="M308 243 c12 -2 30 -2 40 0 9 3 -1 5 -23 4 -22 0 -30 -2 -17 -4z"/>
<path d="M650 240 c0 -5 4 -10 9 -10 6 0 13 5 16 10 3 6 -1 10 -9 10 -9 0 -16
-4 -16 -10z"/>
<path d="M807 243 c-4 -3 -6 -22 -6 -42 2 -33 2 -34 6 -6 3 16 12 35 21 42 15
11 15 12 1 13 -9 0 -19 -3 -22 -7z"/>
<path d="M961 208 c2 -34 3 -37 6 -13 2 17 12 36 21 43 14 11 13 12 -6 12 -19
0 -22 -5 -21 -42z"/>
<path d="M1121 208 c2 -34 3 -37 6 -13 2 17 12 36 21 43 14 11 13 12 -6 12
-19 0 -22 -5 -21 -42z"/>
<path d="M146 221 c10 -11 72 -27 63 -17 -4 4 -21 11 -39 16 -20 6 -30 6 -24
1z"/>
<path d="M262 198 c-3 -55 -25 -71 -88 -66 -29 3 -51 1 -48 -4 3 -4 31 -8 63
-8 71 0 84 12 78 72 -3 41 -4 42 -5 6z"/>
<path d="M330 174 c0 -14 3 -14 15 -4 8 7 15 14 15 16 0 2 -7 4 -15 4 -8 0
-15 -7 -15 -16z"/>
<path d="M1280 156 c0 -18 -7 -26 -22 -29 -20 -4 -19 -4 5 -6 24 -1 27 3 27
29 0 17 -2 30 -5 30 -3 0 -5 -11 -5 -24z"/>
<path d="M733 151 c-4 -16 -16 -21 -52 -24 -44 -3 -44 -3 12 -5 55 -2 57 -1
57 23 0 30 -10 33 -17 6z"/>
<path d="M1356 146 c4 -10 -3 -16 -23 -19 -23 -3 -22 -4 10 -6 35 -1 37 1 27
19 -12 23 -22 27 -14 6z"/>
</g>
</svg>
